# xmcd CD database file
#
# Track frame offsets:
#	150
#	13814
#	28885
#	42385
#	56455
#	70255
#	87368
#	103516
#	118260
#	131154
#	145869
#	160021
#
# Disc length: 2337 seconds
#
# Revision: 1
# Processed by: cddbd v1.5.2PL0 Copyright (c) Steve Scherf et al.
# Submitted via: CDex 1.70beta2
#
DISCID=a9091f0c
DTITLE=T.T. Purontaka - Kun aika on
DYEAR=2007
DGENRE=Iskelm‰
TTITLE0=Kun aika on
TTITLE1=Nelkytviis
TTITLE2=En pyyd‰ enemp‰‰
TTITLE3=Taipunut oon
TTITLE4=Muuttunut mies
TTITLE5=Kuu ja kaarisilta
TTITLE6=Suudelmiin
TTITLE7=Antaudun
TTITLE8=Suruun kuole ei suomalainen
TTITLE9=Niin se on
TTITLE10=Liian pitk‰ tie
TTITLE11=Kaukainen haave
EXTD=YEAR: 2007
EXTT0=
EXTT1=
EXTT2=
EXTT3=
EXTT4=
EXTT5=
EXTT6=
EXTT7=
EXTT8=
EXTT9=
EXTT10=
EXTT11=
PLAYORDER=
